<svg width="395" height="233" viewBox="0 0 395 233" fill="none" xmlns="http://www.w3.org/2000/svg">
<mask id="path-1-outside-1_1_9" maskUnits="userSpaceOnUse" x="10" y="61" width="133" height="108" fill="black">
<rect fill="white" x="10" y="61" width="133" height="108"/>
<path d="M16.95 72.45V168H11.4V62.85H19.35L59.55 155.25V63H65.1V168H59.55L16.95 72.45ZM87.8648 168V63H141.565V68.55H93.4148V106.95H141.565V112.5H93.4148V162.45H141.565V168H87.8648Z"/>
</mask>
<path d="M16.95 72.45V168H11.4V62.85H19.35L59.55 155.25V63H65.1V168H59.55L16.95 72.45ZM87.8648 168V63H141.565V68.55H93.4148V106.95H141.565V112.5H93.4148V162.45H141.565V168H87.8648Z" fill="#6C4FFC"/>
<path d="M16.95 72.45L17.8633 72.0428L15.95 72.45H16.95ZM16.95 168V169H17.95V168H16.95ZM11.4 168H10.4V169H11.4V168ZM11.4 62.85V61.85H10.4V62.85H11.4ZM19.35 62.85L20.267 62.4511L20.0055 61.85H19.35V62.85ZM59.55 155.25L58.633 155.649L60.55 155.25H59.55ZM59.55 63V62H58.55V63H59.55ZM65.1 63H66.1V62H65.1V63ZM65.1 168V169H66.1V168H65.1ZM59.55 168L58.6367 168.407L58.901 169H59.55V168ZM15.95 72.45V168H17.95V72.45H15.95ZM16.95 167H11.4V169H16.95V167ZM12.4 168V62.85H10.4V168H12.4ZM11.4 63.85H19.35V61.85H11.4V63.85ZM18.433 63.2489L58.633 155.649L60.467 154.851L20.267 62.4511L18.433 63.2489ZM60.55 155.25V63H58.55V155.25H60.55ZM59.55 64H65.1V62H59.55V64ZM64.1 63V168H66.1V63H64.1ZM65.1 167H59.55V169H65.1V167ZM60.4633 167.593L17.8633 72.0428L16.0367 72.8572L58.6367 168.407L60.4633 167.593ZM87.8648 168H86.8648V169H87.8648V168ZM87.8648 63V62H86.8648V63H87.8648ZM141.565 63H142.565V62H141.565V63ZM141.565 68.55V69.55H142.565V68.55H141.565ZM93.4148 68.55V67.55H92.4148V68.55H93.4148ZM93.4148 106.95H92.4148V107.95H93.4148V106.95ZM141.565 106.95H142.565V105.95H141.565V106.95ZM141.565 112.5V113.5H142.565V112.5H141.565ZM93.4148 112.5V111.5H92.4148V112.5H93.4148ZM93.4148 162.45H92.4148V163.45H93.4148V162.45ZM141.565 162.45H142.565V161.45H141.565V162.45ZM141.565 168V169H142.565V168H141.565ZM88.8648 168V63H86.8648V168H88.8648ZM87.8648 64H141.565V62H87.8648V64ZM140.565 63V68.55H142.565V63H140.565ZM141.565 67.55H93.4148V69.55H141.565V67.55ZM92.4148 68.55V106.95H94.4148V68.55H92.4148ZM93.4148 107.95H141.565V105.95H93.4148V107.95ZM140.565 106.95V112.5H142.565V106.95H140.565ZM141.565 111.5H93.4148V113.5H141.565V111.5ZM92.4148 112.5V162.45H94.4148V112.5H92.4148ZM93.4148 163.45H141.565V161.45H93.4148V163.45ZM140.565 162.45V168H142.565V162.45H140.565ZM141.565 167H87.8648V169H141.565V167Z" fill="#6C4FFC" mask="url(#path-1-outside-1_1_9)"/>
<mask id="path-3-outside-2_1_9" maskUnits="userSpaceOnUse" x="264" y="62" width="126" height="108" fill="black">
<rect fill="white" x="264" y="62" width="126" height="108"/>
<path d="M319.35 131.7C319.35 143.2 317.05 152.2 312.45 158.7C307.85 165.1 301.1 168.3 292.2 168.3C283.3 168.3 276.65 164.75 272.25 157.65C267.85 150.55 265.65 141.9 265.65 131.7V63H271.2V131.55C271.2 141.75 273.25 149.5 277.35 154.8C281.55 160.1 286.6 162.75 292.5 162.75C298.5 162.75 303.55 160.15 307.65 154.95C311.75 149.65 313.8 141.85 313.8 131.55V63H319.35V131.7ZM376.196 152.1C380.696 148.2 382.946 143.45 382.946 137.85C382.946 132.25 381.296 127.8 377.996 124.5C374.796 121.1 370.896 118.6 366.296 117C361.696 115.3 357.046 113.6 352.346 111.9C347.746 110.2 343.796 107.65 340.496 104.25C337.296 100.75 335.696 96.3 335.696 90.9C335.696 81.5 338.296 74.5 343.496 69.9C348.796 65.3 355.096 63 362.396 63C369.696 63 377.696 63.7 386.396 65.1V70.65C378.596 69.25 371.296 68.55 364.496 68.55C357.696 68.55 352.096 70.45 347.696 74.25C343.396 78.05 341.246 83.4 341.246 90.3C341.246 96.3 344.346 100.8 350.546 103.8C353.346 105.2 356.396 106.5 359.696 107.7C363.096 108.9 366.496 110.25 369.896 111.75C373.296 113.25 376.346 115.05 379.046 117.15C381.846 119.15 384.096 122 385.796 125.7C387.596 129.3 388.496 133.55 388.496 138.45C388.496 143.25 387.346 147.5 385.046 151.2C382.846 154.9 380.096 157.8 376.796 159.9C373.496 162 369.646 163.7 365.246 165C358.146 167.2 350.146 168.3 341.246 168.3H337.496V162.75C355.296 162.75 368.196 159.2 376.196 152.1Z"/>
</mask>
<path d="M319.35 131.7C319.35 143.2 317.05 152.2 312.45 158.7C307.85 165.1 301.1 168.3 292.2 168.3C283.3 168.3 276.65 164.75 272.25 157.65C267.85 150.55 265.65 141.9 265.65 131.7V63H271.2V131.55C271.2 141.75 273.25 149.5 277.35 154.8C281.55 160.1 286.6 162.75 292.5 162.75C298.5 162.75 303.55 160.15 307.65 154.95C311.75 149.65 313.8 141.85 313.8 131.55V63H319.35V131.7ZM376.196 152.1C380.696 148.2 382.946 143.45 382.946 137.85C382.946 132.25 381.296 127.8 377.996 124.5C374.796 121.1 370.896 118.6 366.296 117C361.696 115.3 357.046 113.6 352.346 111.9C347.746 110.2 343.796 107.65 340.496 104.25C337.296 100.75 335.696 96.3 335.696 90.9C335.696 81.5 338.296 74.5 343.496 69.9C348.796 65.3 355.096 63 362.396 63C369.696 63 377.696 63.7 386.396 65.1V70.65C378.596 69.25 371.296 68.55 364.496 68.55C357.696 68.55 352.096 70.45 347.696 74.25C343.396 78.05 341.246 83.4 341.246 90.3C341.246 96.3 344.346 100.8 350.546 103.8C353.346 105.2 356.396 106.5 359.696 107.7C363.096 108.9 366.496 110.25 369.896 111.75C373.296 113.25 376.346 115.05 379.046 117.15C381.846 119.15 384.096 122 385.796 125.7C387.596 129.3 388.496 133.55 388.496 138.45C388.496 143.25 387.346 147.5 385.046 151.2C382.846 154.9 380.096 157.8 376.796 159.9C373.496 162 369.646 163.7 365.246 165C358.146 167.2 350.146 168.3 341.246 168.3H337.496V162.75C355.296 162.75 368.196 159.2 376.196 152.1Z" fill="#6C4FFC"/>
<path d="M312.45 158.7L313.262 159.284L313.266 159.278L312.45 158.7ZM272.25 157.65L271.4 158.177L272.25 157.65ZM265.65 63V62H264.65V63H265.65ZM271.2 63H272.2V62H271.2V63ZM277.35 154.8L276.559 155.412L276.566 155.421L277.35 154.8ZM307.65 154.95L308.435 155.569L308.441 155.562L307.65 154.95ZM313.8 63V62H312.8V63H313.8ZM319.35 63H320.35V62H319.35V63ZM318.35 131.7C318.35 143.081 316.072 151.851 311.634 158.122L313.266 159.278C318.028 152.549 320.35 143.319 320.35 131.7H318.35ZM311.638 158.116C307.252 164.218 300.826 167.3 292.2 167.3V169.3C301.374 169.3 308.448 165.982 313.262 159.284L311.638 158.116ZM292.2 167.3C283.619 167.3 277.304 163.906 273.1 157.123L271.4 158.177C275.996 165.594 282.981 169.3 292.2 169.3V167.3ZM273.1 157.123C268.818 150.213 266.65 141.755 266.65 131.7H264.65C264.65 142.045 266.882 150.887 271.4 158.177L273.1 157.123ZM266.65 131.7V63H264.65V131.7H266.65ZM265.65 64H271.2V62H265.65V64ZM270.2 63V131.55H272.2V63H270.2ZM270.2 131.55C270.2 141.862 272.269 149.866 276.559 155.412L278.141 154.188C274.231 149.134 272.2 141.638 272.2 131.55H270.2ZM276.566 155.421C280.925 160.921 286.248 163.75 292.5 163.75V161.75C286.952 161.75 282.175 159.279 278.134 154.179L276.566 155.421ZM292.5 163.75C298.841 163.75 304.168 160.981 308.435 155.569L306.865 154.331C302.932 159.319 298.159 161.75 292.5 161.75V163.75ZM308.441 155.562C312.732 150.015 314.8 141.959 314.8 131.55H312.8C312.8 141.741 310.768 149.285 306.859 154.338L308.441 155.562ZM314.8 131.55V63H312.8V131.55H314.8ZM313.8 64H319.35V62H313.8V64ZM318.35 63V131.7H320.35V63H318.35ZM376.196 152.1L375.542 151.344L375.533 151.352L376.196 152.1ZM377.996 124.5L377.268 125.185L377.279 125.196L377.289 125.207L377.996 124.5ZM366.296 117L365.95 117.938L365.959 117.941L365.968 117.944L366.296 117ZM352.346 111.9L352 112.838L352.006 112.84L352.346 111.9ZM340.496 104.25L339.758 104.925L339.769 104.936L339.779 104.946L340.496 104.25ZM343.496 69.9L342.841 69.1447L342.834 69.151L343.496 69.9ZM386.396 65.1H387.396V64.248L386.555 64.1127L386.396 65.1ZM386.396 70.65L386.22 71.6343L387.396 71.8455V70.65H386.396ZM347.696 74.25L347.043 73.4931L347.034 73.5007L347.696 74.25ZM350.546 103.8L350.994 102.905L350.982 102.9L350.546 103.8ZM359.696 107.7L359.355 108.64L359.364 108.643L359.696 107.7ZM369.896 111.75L370.3 110.835L370.3 110.835L369.896 111.75ZM379.046 117.15L378.433 117.939L378.449 117.952L378.465 117.964L379.046 117.15ZM385.796 125.7L384.888 126.117L384.895 126.132L384.902 126.147L385.796 125.7ZM385.046 151.2L384.197 150.672L384.192 150.68L384.187 150.689L385.046 151.2ZM365.246 165L364.963 164.041L364.951 164.045L365.246 165ZM337.496 168.3H336.496V169.3H337.496V168.3ZM337.496 162.75V161.75H336.496V162.75H337.496ZM376.851 152.856C381.555 148.779 383.946 143.76 383.946 137.85H381.946C381.946 143.14 379.838 147.621 375.542 151.344L376.851 152.856ZM383.946 137.85C383.946 132.042 382.228 127.317 378.704 123.793L377.289 125.207C380.365 128.283 381.946 132.458 381.946 137.85H383.946ZM378.725 123.815C375.409 120.292 371.37 117.706 366.625 116.056L365.968 117.944C370.423 119.494 374.184 121.908 377.268 125.185L378.725 123.815ZM366.643 116.062C362.041 114.361 357.389 112.66 352.687 110.96L352.006 112.84C356.704 114.54 361.352 116.239 365.95 117.938L366.643 116.062ZM352.693 110.962C348.228 109.312 344.406 106.843 341.214 103.554L339.779 104.946C343.187 108.457 347.265 111.088 352 112.838L352.693 110.962ZM341.235 103.575C338.227 100.285 336.696 96.0874 336.696 90.9H334.696C334.696 96.5126 336.366 101.215 339.758 104.925L341.235 103.575ZM336.696 90.9C336.696 81.6802 339.242 74.9986 344.159 70.649L342.834 69.151C337.351 74.0014 334.696 81.3198 334.696 90.9H336.696ZM344.152 70.6552C349.262 66.2199 355.327 64 362.396 64V62C354.866 62 348.331 64.3801 342.841 69.1448L344.152 70.6552ZM362.396 64C369.634 64 377.58 64.6941 386.238 66.0873L386.555 64.1127C377.813 62.7059 369.759 62 362.396 62V64ZM385.396 65.1V70.65H387.396V65.1H385.396ZM386.573 69.6657C378.724 68.2569 371.364 67.55 364.496 67.55V69.55C371.228 69.55 378.469 70.2431 386.22 71.6343L386.573 69.6657ZM364.496 67.55C357.499 67.55 351.655 69.5103 347.043 73.4932L348.35 75.0068C352.538 71.3897 357.894 69.55 364.496 69.55V67.55ZM347.034 73.5007C342.476 77.5287 340.246 83.1767 340.246 90.3H342.246C342.246 83.6233 344.317 78.5713 348.359 74.9993L347.034 73.5007ZM340.246 90.3C340.246 93.4818 341.072 96.3091 342.748 98.7423C344.419 101.168 346.895 103.144 350.111 104.7L350.982 102.9C347.998 101.456 345.824 99.6824 344.395 97.6077C342.971 95.5409 342.246 93.1181 342.246 90.3H340.246ZM350.099 104.694C352.937 106.113 356.023 107.428 359.355 108.64L360.038 106.76C356.77 105.572 353.756 104.287 350.994 102.906L350.099 104.694ZM359.364 108.643C362.739 109.834 366.115 111.175 369.493 112.665L370.3 110.835C366.878 109.325 363.454 107.966 360.029 106.757L359.364 108.643ZM369.493 112.665C372.824 114.135 375.803 115.894 378.433 117.939L379.66 116.361C376.89 114.206 373.769 112.365 370.3 110.835L369.493 112.665ZM378.465 117.964C381.099 119.845 383.247 122.547 384.888 126.117L386.705 125.282C384.946 121.453 382.594 118.455 379.628 116.336L378.465 117.964ZM384.902 126.147C386.619 129.581 387.496 133.672 387.496 138.45H389.496C389.496 133.428 388.574 129.019 386.691 125.253L384.902 126.147ZM387.496 138.45C387.496 143.083 386.389 147.146 384.197 150.672L385.896 151.728C388.304 147.854 389.496 143.417 389.496 138.45H387.496ZM384.187 150.689C382.059 154.268 379.415 157.049 376.26 159.056L377.333 160.744C380.778 158.551 383.634 155.532 385.906 151.711L384.187 150.689ZM376.26 159.056C373.051 161.098 369.289 162.763 364.963 164.041L365.53 165.959C370.004 164.637 373.942 162.902 377.333 160.744L376.26 159.056ZM364.951 164.045C357.963 166.21 350.065 167.3 341.246 167.3V169.3C350.228 169.3 358.33 168.19 365.542 165.955L364.951 164.045ZM341.246 167.3H337.496V169.3H341.246V167.3ZM338.496 168.3V162.75H336.496V168.3H338.496ZM337.496 163.75C355.39 163.75 368.589 160.188 376.86 152.848L375.533 151.352C367.804 158.212 355.203 161.75 337.496 161.75V163.75Z" fill="#6C4FFC" mask="url(#path-3-outside-2_1_9)"/>
<mask id="path-5-outside-3_1_9" maskUnits="userSpaceOnUse" x="150" y="38" width="103" height="143" fill="black">
<rect fill="white" x="150" y="38" width="103" height="143"/>
<path d="M249 40L206.6 110.4V119C206.6 144.867 209.733 161.2 216 168C218.933 171.067 222.667 172.6 227.2 172.6C235.2 172.6 243.4 168.133 251.8 159.2V168.8C243.933 176.267 235.333 180 226 180C214.133 180 206.467 172.267 203 156.8C201 148 199.733 136.267 199.2 121.6L161 180H152.4L198.2 108.8V100.6C198.2 81.6667 196.467 68.1333 193 60C191.533 56.5333 189.333 53.5333 186.4 51C183.6 48.4667 180.2 47.2 176.2 47.2C168.467 47.2 160.4 51.6667 152 60.6V51C160 43.5333 168.733 39.8 178.2 39.8C187.8 39.8 194.6 44.6 198.6 54.2C202.733 63.6667 205.133 78 205.8 97.2L241.6 40H249Z"/>
</mask>
<path d="M249 40L206.6 110.4V119C206.6 144.867 209.733 161.2 216 168C218.933 171.067 222.667 172.6 227.2 172.6C235.2 172.6 243.4 168.133 251.8 159.2V168.8C243.933 176.267 235.333 180 226 180C214.133 180 206.467 172.267 203 156.8C201 148 199.733 136.267 199.2 121.6L161 180H152.4L198.2 108.8V100.6C198.2 81.6667 196.467 68.1333 193 60C191.533 56.5333 189.333 53.5333 186.4 51C183.6 48.4667 180.2 47.2 176.2 47.2C168.467 47.2 160.4 51.6667 152 60.6V51C160 43.5333 168.733 39.8 178.2 39.8C187.8 39.8 194.6 44.6 198.6 54.2C202.733 63.6667 205.133 78 205.8 97.2L241.6 40H249Z" fill="#6C4FFC"/>
<path d="M249 40L249.857 40.5159L250.77 39H249V40ZM206.6 110.4L205.743 109.884L205.6 110.122V110.4H206.6ZM216 168L215.265 168.678L215.271 168.685L215.277 168.691L216 168ZM251.8 159.2H252.8V156.677L251.071 158.515L251.8 159.2ZM251.8 168.8L252.488 169.525L252.8 169.23V168.8H251.8ZM203 156.8L203.976 156.581L203.975 156.578L203 156.8ZM199.2 121.6L200.199 121.564L200.085 118.42L198.363 121.053L199.2 121.6ZM161 180V181H161.541L161.837 180.547L161 180ZM152.4 180L151.559 179.459L150.568 181H152.4V180ZM198.2 108.8L199.041 109.341L199.2 109.094V108.8H198.2ZM193 60L192.079 60.3896L192.08 60.3921L193 60ZM186.4 51L185.729 51.7415L185.738 51.7493L185.746 51.7568L186.4 51ZM152 60.6H151V63.1233L152.729 61.285L152 60.6ZM152 51L151.318 50.2689L151 50.5654V51H152ZM198.6 54.2L197.677 54.5846L197.68 54.5924L197.684 54.6001L198.6 54.2ZM205.8 97.2L204.801 97.2347L204.914 100.501L206.648 97.7305L205.8 97.2ZM241.6 40V39H241.046L240.752 39.4695L241.6 40ZM248.143 39.4841L205.743 109.884L207.457 110.916L249.857 40.5159L248.143 39.4841ZM205.6 110.4V119H207.6V110.4H205.6ZM205.6 119C205.6 131.966 206.385 142.585 207.968 150.838C209.545 159.062 211.94 165.07 215.265 168.678L216.735 167.322C213.794 164.13 211.488 158.571 209.932 150.462C208.382 142.381 207.6 131.901 207.6 119H205.6ZM215.277 168.691C218.413 171.97 222.415 173.6 227.2 173.6V171.6C222.919 171.6 219.453 170.164 216.723 167.309L215.277 168.691ZM227.2 173.6C235.594 173.6 244.039 168.913 252.529 159.885L251.071 158.515C242.761 167.353 234.806 171.6 227.2 171.6V173.6ZM250.8 159.2V168.8H252.8V159.2H250.8ZM251.112 168.075C243.398 175.396 235.036 179 226 179V181C235.631 181 244.468 177.138 252.488 169.525L251.112 168.075ZM226 179C220.307 179 215.688 177.155 212.06 173.496C208.407 169.811 205.686 164.21 203.976 156.581L202.024 157.019C203.781 164.857 206.627 170.856 210.64 174.904C214.679 178.978 219.826 181 226 181V179ZM203.975 156.578C201.995 147.865 200.732 136.201 200.199 121.564L198.201 121.636C198.735 136.332 200.005 148.135 202.025 157.022L203.975 156.578ZM198.363 121.053L160.163 179.453L161.837 180.547L200.037 122.147L198.363 121.053ZM161 179H152.4V181H161V179ZM153.241 180.541L199.041 109.341L197.359 108.259L151.559 179.459L153.241 180.541ZM199.2 108.8V100.6H197.2V108.8H199.2ZM199.2 100.6C199.2 81.6509 197.472 67.941 193.92 59.6079L192.08 60.3921C195.462 68.3256 197.2 81.6824 197.2 100.6H199.2ZM193.921 59.6104C192.393 55.9981 190.099 52.8737 187.054 50.2432L185.746 51.7568C188.567 54.193 190.674 57.0685 192.079 60.3896L193.921 59.6104ZM187.071 50.2585C184.075 47.5483 180.432 46.2 176.2 46.2V48.2C179.968 48.2 183.125 49.385 185.729 51.7415L187.071 50.2585ZM176.2 46.2C168.065 46.2 159.753 50.8954 151.271 59.915L152.729 61.285C161.047 52.4379 168.868 48.2 176.2 48.2V46.2ZM153 60.6V51H151V60.6H153ZM152.682 51.731C160.528 44.4083 169.026 40.8 178.2 40.8V38.8C168.441 38.8 159.472 42.6583 151.318 50.2689L152.682 51.731ZM178.2 40.8C182.826 40.8 186.717 41.9536 189.923 44.217C193.135 46.4842 195.731 49.9153 197.677 54.5846L199.523 53.8154C197.469 48.8847 194.665 45.1158 191.077 42.583C187.483 40.0463 183.174 38.8 178.2 38.8V40.8ZM197.684 54.6001C201.74 63.8908 204.135 78.0713 204.801 97.2347L206.799 97.1653C206.131 77.9287 203.727 63.4425 199.516 53.7999L197.684 54.6001ZM206.648 97.7305L242.448 40.5305L240.752 39.4695L204.952 96.6695L206.648 97.7305ZM241.6 41H249V39H241.6V41Z" fill="#6C4FFC" mask="url(#path-5-outside-3_1_9)"/>
</svg>
